<svg width="72" height="22" viewBox="0 0 72 22" fill="none" xmlns="http://www.w3.org/2000/svg">
<path d="M12.3281 1.10938L7.93772 14.1941H0L4.39039 1.10938H12.3281V1.10938ZM3.21339 12.2138H6.05546L9.11706 3.08972H6.27498L3.21339 12.2138ZM12.9657 14.3576H10.4178L12.5476 8.01023L10.2684 8.70848L10.9503 6.6791L13.2295 5.98084L14.9717 0.787109H17.5195L12.9657 14.3576Z" fill="url(#paint0_linear_47_187)"/>
<path d="M21.1673 10.0559L19.4555 15.8638L65.1132 16.0413L64.4196 18.4046H15.1282L17.9329 10.0559H21.1673ZM29.1073 0.948143L28.4418 2.92848H25.1303L24.6516 4.35769C24.6072 4.48847 24.5605 4.61458 24.5068 4.73835C24.4531 4.86212 24.397 4.98589 24.3363 5.10266L27.2274 7.27683L25.4316 8.99796L22.774 7.00127C21.6344 7.9424 20.0463 8.63132 18.0076 9.06335L17.5195 7.27683C18.1594 7.14606 18.7292 7.00127 19.2336 6.8378C19.7381 6.67666 20.1795 6.4805 20.5578 6.25397C20.9361 6.02745 21.256 5.75655 21.5129 5.44128C21.7698 5.12835 21.9683 4.75937 22.1108 4.33668L22.5848 2.92381H19.4322L20.0977 0.943467H29.1073V0.948143ZM33.3833 0.784668L30.1302 10.4762H27.5824L29.2381 5.5417L27.0569 5.99709L27.7389 3.9677L29.92 3.51231L30.8355 0.784668H33.3833Z" fill="url(#paint1_linear_47_187)"/>
<path d="M39.1469 13.4094H30.8845L31.5501 11.429H32.6874L35.749 2.30495H34.6117L35.2772 0.324605H43.5396L42.874 2.30495H41.7367L38.6751 11.429H39.8124L39.1469 13.4094ZM35.0717 11.429H36.2884L39.35 2.30495H38.1333L35.0717 11.429ZM39.7424 13.5705L44.2962 0H46.6339L44.7049 5.7472L46.3022 5.24277L48.0607 0H50.4147L45.8609 13.5705H43.5069L45.5666 7.43329L43.9693 7.93772L42.08 13.5705H39.7424V13.5705Z" fill="url(#paint2_linear_47_187)"/>
<path d="M59.9708 1.17456L59.2889 3.20395C59.0273 3.98394 58.6747 4.71255 58.2286 5.39446L62.7451 8.47942L60.8956 10.2659L56.5472 7.31176C54.8845 8.75031 52.5982 9.78952 49.6907 10.4294L49.3591 8.56348C51.4422 8.16415 53.0723 7.52194 54.2493 6.63919C55.4263 5.75644 56.253 4.60746 56.7294 3.18993L57.4043 1.17689H59.9708V1.17456Z" fill="url(#paint3_linear_47_187)"/>
<path d="M64.0762 21.1206H49.4152L49.9289 19.5139H64.59L64.0762 21.1206Z" fill="url(#paint4_linear_47_187)"/>
<path d="M54.3521 13.4258L53.7216 15.0325H66.9698L67.647 13.4258H54.3521Z" fill="url(#paint5_linear_47_187)"/>
<path d="M68.5788 13.4258H67.9342L67.2687 15.0325H67.9062L68.5788 13.4258Z" fill="url(#paint6_linear_47_187)"/>
<path d="M69.6414 13.4258H68.9081L68.2659 15.0325H68.9898L69.6414 13.4258Z" fill="url(#paint7_linear_47_187)"/>
<path d="M72 13.4258H69.8305L69.179 15.0325H71.3858L72 13.4258Z" fill="url(#paint8_linear_47_187)"/>
<defs>
<linearGradient id="paint0_linear_47_187" x1="5.54966" y1="0.787108" x2="5.54966" y2="13.2864" gradientUnits="userSpaceOnUse">
<stop stop-color="#06A93E"/>
<stop offset="1" stop-color="#8AFC01"/>
</linearGradient>
<linearGradient id="paint1_linear_47_187" x1="30.9619" y1="0.784666" x2="30.9619" y2="17.0138" gradientUnits="userSpaceOnUse">
<stop stop-color="#06A93E"/>
<stop offset="1" stop-color="#8AFC01"/>
</linearGradient>
<linearGradient id="paint2_linear_47_187" x1="37.0711" y1="-1.30218e-06" x2="37.0711" y2="12.4993" gradientUnits="userSpaceOnUse">
<stop stop-color="#06A93E"/>
<stop offset="1" stop-color="#8AFC01"/>
</linearGradient>
<linearGradient id="paint3_linear_47_187" x1="53.5994" y1="1.17456" x2="53.5994" y2="9.69886" gradientUnits="userSpaceOnUse">
<stop stop-color="#06A93E"/>
<stop offset="1" stop-color="#8AFC01"/>
</linearGradient>
<linearGradient id="paint4_linear_47_187" x1="54.2221" y1="19.5139" x2="54.2221" y2="20.9938" gradientUnits="userSpaceOnUse">
<stop stop-color="#06A93E"/>
<stop offset="1" stop-color="#8AFC01"/>
</linearGradient>
<linearGradient id="paint5_linear_47_187" x1="58.1327" y1="13.4258" x2="58.1327" y2="14.9057" gradientUnits="userSpaceOnUse">
<stop stop-color="#06A93E"/>
<stop offset="1" stop-color="#8AFC01"/>
</linearGradient>
<linearGradient id="paint6_linear_47_187" x1="67.6837" y1="13.4258" x2="67.6837" y2="14.9057" gradientUnits="userSpaceOnUse">
<stop stop-color="#06A93E"/>
<stop offset="1" stop-color="#8AFC01"/>
</linearGradient>
<linearGradient id="paint7_linear_47_187" x1="68.7016" y1="13.4258" x2="68.7016" y2="14.9057" gradientUnits="userSpaceOnUse">
<stop stop-color="#06A93E"/>
<stop offset="1" stop-color="#8AFC01"/>
</linearGradient>
<linearGradient id="paint8_linear_47_187" x1="70.0726" y1="13.4258" x2="70.0726" y2="14.9057" gradientUnits="userSpaceOnUse">
<stop stop-color="#06A93E"/>
<stop offset="1" stop-color="#8AFC01"/>
</linearGradient>
</defs>
</svg>
