<svg width="31" height="23" viewBox="0 0 31 23" fill="none" xmlns="http://www.w3.org/2000/svg">
<path d="M16.225 1H7.9226C7.47339 1 7.07931 1.29954 6.95908 1.73236L5.44114 7.19694C5.38205 7.40965 5.25424 7.59683 5.07762 7.72929L2.85001 9.4C2.59821 9.58885 2.45001 9.88524 2.45001 10.2V16.675C2.45001 17.2273 2.89773 17.675 3.45001 17.675H16.225" stroke="#FFCB05"/>
<path d="M2.44999 15.8625H2.36249C1.8102 15.8625 1.36249 16.3103 1.36249 16.8625V20.6625C1.36249 21.2148 1.8102 21.6625 2.36249 21.6625H3.62499C4.17727 21.6625 4.62499 21.2148 4.62499 20.6625V17.3125" stroke="#FFCB05"/>
<path d="M5.35 7.6701L3.83778 5.73445C3.64826 5.49187 3.35759 5.3501 3.04975 5.3501H2C1.44772 5.3501 1 5.79781 1 6.3501V6.3801C1 6.93238 1.44772 7.3801 2 7.3801H3.06912C3.3659 7.3801 3.64735 7.51192 3.83735 7.73991L4.2625 8.2501" stroke="#FFCB05"/>
<path d="M16.225 2.44995H8.77256C8.30739 2.44995 7.90365 2.7707 7.79846 3.22382L7.08463 6.29882C6.93908 6.92577 7.4151 7.52495 8.05872 7.52495H16.225" stroke="#FFCB05"/>
<path d="M16.225 14.4126H7.79999C7.2477 14.4126 6.79999 14.8603 6.79999 15.4126V15.5876C6.79999 16.1399 7.2477 16.5876 7.79999 16.5876H16.225" stroke="#FFCB05"/>
<path d="M16.225 9.69995H5.07008C4.62407 9.69995 4.26251 10.0615 4.26251 10.5075V10.5075C4.26251 10.8836 4.52207 11.2098 4.88849 11.2944L8.86404 12.2118C8.93778 12.2289 9.01322 12.2375 9.0889 12.2375H16.225" stroke="#FFCB05"/>
<path d="M6.4375 9.69995V11.5125" stroke="#FFCB05"/>
<path d="M10.7875 9.69995V12.2375" stroke="#FFCB05"/>
<path d="M14.775 1H23.0774C23.5266 1 23.9207 1.29954 24.0409 1.73236L25.5589 7.19694C25.6179 7.40965 25.7458 7.59683 25.9224 7.72929L28.15 9.4C28.4018 9.58885 28.55 9.88524 28.55 10.2V16.675C28.55 17.2273 28.1023 17.675 27.55 17.675H14.775" stroke="#FFCB05"/>
<path d="M28.55 15.8625H28.6375C29.1898 15.8625 29.6375 16.3103 29.6375 16.8625V20.6625C29.6375 21.2148 29.1898 21.6625 28.6375 21.6625H27.375C26.8227 21.6625 26.375 21.2148 26.375 20.6625V17.3125" stroke="#FFCB05"/>
<path d="M25.65 7.6701L27.1622 5.73445C27.3517 5.49187 27.6424 5.3501 27.9502 5.3501H29C29.5523 5.3501 30 5.79781 30 6.3501V6.3801C30 6.93238 29.5523 7.3801 29 7.3801H27.9309C27.6341 7.3801 27.3526 7.51192 27.1627 7.73991L26.7375 8.2501" stroke="#FFCB05"/>
<path d="M14.775 2.44995H22.2274C22.6926 2.44995 23.0963 2.7707 23.2015 3.22382L23.9154 6.29882C24.0609 6.92577 23.5849 7.52495 22.9413 7.52495H14.775" stroke="#FFCB05"/>
<path d="M14.775 14.4126H23.2C23.7523 14.4126 24.2 14.8603 24.2 15.4126V15.5876C24.2 16.1399 23.7523 16.5876 23.2 16.5876H14.775" stroke="#FFCB05"/>
<path d="M14.775 9.69995H25.9299C26.3759 9.69995 26.7375 10.0615 26.7375 10.5075V10.5075C26.7375 10.8836 26.4779 11.2098 26.1115 11.2944L22.136 12.2118C22.0622 12.2289 21.9868 12.2375 21.9111 12.2375H14.775" stroke="#FFCB05"/>
<path d="M24.5625 9.69995V11.5125" stroke="#FFCB05"/>
<path d="M20.2125 9.69995V12.2375" stroke="#FFCB05"/>
</svg>
