<svg width="161" height="48" viewBox="0 0 161 48" fill="none" xmlns="http://www.w3.org/2000/svg">
<g style="mix-blend-mode:soft-light">
<path d="M27.567 2.48041L17.7496 31.7394H0L9.81739 2.48041H27.567V2.48041ZM7.1855 27.3111H13.5407L20.3868 6.90867H14.0316L7.1855 27.3111ZM28.9926 32.1049H23.2954L28.0579 17.9115L22.9612 19.4728L24.486 14.9349L29.5827 13.3735L33.4783 1.75977H39.1756L28.9926 32.1049Z" fill="url(#paint0_linear_47_176)"/>
<path d="M47.3324 22.4861L43.5046 35.4732L145.6 35.8701L144.049 41.1548H33.8282L40.0999 22.4861H47.3324ZM65.0872 2.12019L63.599 6.54845H56.1941L55.1236 9.74432C55.0244 10.0368 54.92 10.3187 54.7999 10.5955C54.6798 10.8723 54.5544 11.149 54.4187 11.4101L60.8835 16.2718L56.8678 20.1205L50.9251 15.6556C48.3768 17.7601 44.8258 19.3006 40.267 20.2667L39.1756 16.2718C40.6064 15.9794 41.8806 15.6557 43.0085 15.2901C44.1365 14.9298 45.1235 14.4911 45.9694 13.9846C46.8154 13.4781 47.5308 12.8723 48.1052 12.1673C48.6797 11.4676 49.1235 10.6425 49.4421 9.69732L50.5021 6.53801H43.4524L44.9407 2.10973H65.0872V2.12019ZM74.6487 1.75464L67.3745 23.426H61.6773L65.3797 12.3919L60.5023 13.4102L62.0271 8.87225L66.9045 7.85395L68.9515 1.75464H74.6487Z" fill="url(#paint1_linear_47_176)"/>
<path d="M87.5367 29.9848H69.0612L70.5494 25.5565H73.0926L79.9386 5.15413H77.3955L78.8838 0.725852H97.3593L95.871 5.15413H93.3279L86.4818 25.5565H89.0249L87.5367 29.9848ZM78.4242 25.5565H81.1449L87.991 5.15413H85.2703L78.4242 25.5565ZM88.8683 30.3451L99.0512 0H104.278L99.9651 12.8514L103.537 11.7234L107.469 0H112.733L102.55 30.3451H97.2862L101.892 16.6217L98.3201 17.7496L94.0955 30.3451H88.8683V30.3451Z" fill="url(#paint2_linear_47_176)"/>
<path d="M134.101 2.62671L132.577 7.16464C131.992 8.9088 131.203 10.5381 130.206 12.0629L140.305 18.9612L136.169 22.956L126.446 16.3502C122.728 19.5669 117.616 21.8907 111.114 23.3215L110.373 19.1492C115.031 18.2562 118.676 16.8201 121.307 14.8462C123.939 12.8723 125.788 10.3031 126.853 7.1333L128.362 2.63192H134.101V2.62671Z" fill="url(#paint3_linear_47_176)"/>
<path d="M143.282 47.228H110.498L111.647 43.6353H144.431L143.282 47.228Z" fill="url(#paint4_linear_47_176)"/>
<path d="M121.537 30.0215L120.127 33.6142H149.752L151.266 30.0215H121.537Z" fill="url(#paint5_linear_47_176)"/>
<path d="M153.35 30.0215H151.908L150.42 33.6142H151.846L153.35 30.0215Z" fill="url(#paint6_linear_47_176)"/>
<path d="M155.726 30.0215H154.086L152.65 33.6142H154.269L155.726 30.0215Z" fill="url(#paint7_linear_47_176)"/>
<path d="M161 30.0215H156.149L154.692 33.6142H159.627L161 30.0215Z" fill="url(#paint8_linear_47_176)"/>
</g>
<defs>
<linearGradient id="paint0_linear_47_176" x1="12.4097" y1="1.75976" x2="9.03731" y2="41.3505" gradientUnits="userSpaceOnUse">
<stop/>
<stop offset="1" stop-color="#363636"/>
</linearGradient>
<linearGradient id="paint1_linear_47_176" x1="69.2343" y1="1.75463" x2="67.2302" y2="53.4546" gradientUnits="userSpaceOnUse">
<stop/>
<stop offset="1" stop-color="#363636"/>
</linearGradient>
<linearGradient id="paint2_linear_47_176" x1="82.8951" y1="-2.91181e-06" x2="79.8656" y2="39.6465" gradientUnits="userSpaceOnUse">
<stop/>
<stop offset="1" stop-color="#363636"/>
</linearGradient>
<linearGradient id="paint3_linear_47_176" x1="119.854" y1="2.62671" x2="117.798" y2="29.6665" gradientUnits="userSpaceOnUse">
<stop/>
<stop offset="1" stop-color="#363636"/>
</linearGradient>
<linearGradient id="paint4_linear_47_176" x1="121.247" y1="43.6353" x2="121.192" y2="48.356" gradientUnits="userSpaceOnUse">
<stop/>
<stop offset="1" stop-color="#363636"/>
</linearGradient>
<linearGradient id="paint5_linear_47_176" x1="129.991" y1="30.0215" x2="129.931" y2="34.7421" gradientUnits="userSpaceOnUse">
<stop/>
<stop offset="1" stop-color="#363636"/>
</linearGradient>
<linearGradient id="paint6_linear_47_176" x1="151.348" y1="30.0215" x2="150.723" y2="34.6586" gradientUnits="userSpaceOnUse">
<stop/>
<stop offset="1" stop-color="#363636"/>
</linearGradient>
<linearGradient id="paint7_linear_47_176" x1="153.624" y1="30.0215" x2="153.028" y2="34.6663" gradientUnits="userSpaceOnUse">
<stop/>
<stop offset="1" stop-color="#363636"/>
</linearGradient>
<linearGradient id="paint8_linear_47_176" x1="156.69" y1="30.0215" x2="156.395" y2="34.7244" gradientUnits="userSpaceOnUse">
<stop/>
<stop offset="1" stop-color="#363636"/>
</linearGradient>
</defs>
</svg>
